<svg xmlns="http://www.w3.org/2000/svg" width="191" height="191" fill="none" viewBox="0 0 191 191"><g clip-path="url(#clip0_36_30)"><path fill="#000" d="M191 95.5C191 148.243 148.243 191 95.5 191C42.7568 191 0 148.243 0 95.5C0 42.7568 42.7568 0 95.5 0C148.243 0 191 42.7568 191 95.5Z"/><mask id="mask0_36_30" style="mask-type:alpha" width="191" height="191" x="0" y="0" maskUnits="userSpaceOnUse"><path fill="#000" d="M191 95.5C191 148.243 148.243 191 95.5 191C42.7568 191 0 148.243 0 95.5C0 42.7568 42.7568 0 95.5 0C148.243 0 191 42.7568 191 95.5Z"/></mask><g mask="url(#mask0_36_30)"><circle cx="95" cy="100" r="49" fill="#fff"/><path fill="#fff" d="M122 -14H144V148H122V-14Z"/></g></g><defs><clipPath id="clip0_36_30"><rect width="191" height="191" fill="#fff"/></clipPath></defs></svg>